<svg version="1.1" xmlns="http://www.w3.org/2000/svg" xmlns:xlink="http://www.w3.org/1999/xlink" width="743.80810546875" height="548"><defs/><g><text fill="#eeeeee" stroke="none" font-family="Arial" font-size="24px" font-style="normal" font-weight="normal" text-decoration="none" x="0" y="0">UNREGISTERED</text><text fill="#eeeeee" stroke="none" font-family="Arial" font-size="24px" font-style="normal" font-weight="normal" text-decoration="none" x="0" y="30">UNREGISTERED</text><text fill="#eeeeee" stroke="none" font-family="Arial" font-size="24px" font-style="normal" font-weight="normal" text-decoration="none" x="0" y="60">UNREGISTERED</text><text fill="#eeeeee" stroke="none" font-family="Arial" font-size="24px" font-style="normal" font-weight="normal" text-decoration="none" x="0" y="90">UNREGISTERED</text><text fill="#eeeeee" stroke="none" font-family="Arial" font-size="24px" font-style="normal" font-weight="normal" text-decoration="none" x="0" y="120">UNREGISTERED</text><text fill="#eeeeee" stroke="none" font-family="Arial" font-size="24px" font-style="normal" font-weight="normal" text-decoration="none" x="0" y="150">UNREGISTERED</text><text fill="#eeeeee" stroke="none" font-family="Arial" font-size="24px" font-style="normal" font-weight="normal" text-decoration="none" x="0" y="180">UNREGISTERED</text><text fill="#eeeeee" stroke="none" font-family="Arial" font-size="24px" font-style="normal" font-weight="normal" text-decoration="none" x="0" y="210">UNREGISTERED</text><text fill="#eeeeee" stroke="none" font-family="Arial" font-size="24px" font-style="normal" font-weight="normal" text-decoration="none" x="0" y="240">UNREGISTERED</text><text fill="#eeeeee" stroke="none" font-family="Arial" font-size="24px" font-style="normal" font-weight="normal" text-decoration="none" x="0" y="270">UNREGISTERED</text><text fill="#eeeeee" stroke="none" font-family="Arial" font-size="24px" font-style="normal" font-weight="normal" text-decoration="none" x="0" y="300">UNREGISTERED</text><text fill="#eeeeee" stroke="none" font-family="Arial" font-size="24px" font-style="normal" font-weight="normal" text-decoration="none" x="0" y="330">UNREGISTERED</text><text fill="#eeeeee" stroke="none" font-family="Arial" font-size="24px" font-style="normal" font-weight="normal" text-decoration="none" x="0" y="360">UNREGISTERED</text><text fill="#eeeeee" stroke="none" font-family="Arial" font-size="24px" font-style="normal" font-weight="normal" text-decoration="none" x="0" y="390">UNREGISTERED</text><text fill="#eeeeee" stroke="none" font-family="Arial" font-size="24px" font-style="normal" font-weight="normal" text-decoration="none" x="0" y="420">UNREGISTERED</text><text fill="#eeeeee" stroke="none" font-family="Arial" font-size="24px" font-style="normal" font-weight="normal" text-decoration="none" x="0" y="450">UNREGISTERED</text><text fill="#eeeeee" stroke="none" font-family="Arial" font-size="24px" font-style="normal" font-weight="normal" text-decoration="none" x="0" y="480">UNREGISTERED</text><text fill="#eeeeee" stroke="none" font-family="Arial" font-size="24px" font-style="normal" font-weight="normal" text-decoration="none" x="0" y="510">UNREGISTERED</text><text fill="#eeeeee" stroke="none" font-family="Arial" font-size="24px" font-style="normal" font-weight="normal" text-decoration="none" x="0" y="540">UNREGISTERED</text><text fill="#eeeeee" stroke="none" font-family="Arial" font-size="24px" font-style="normal" font-weight="normal" text-decoration="none" x="200" y="0">UNREGISTERED</text><text fill="#eeeeee" stroke="none" font-family="Arial" font-size="24px" font-style="normal" font-weight="normal" text-decoration="none" x="200" y="30">UNREGISTERED</text><text fill="#eeeeee" stroke="none" font-family="Arial" font-size="24px" font-style="normal" font-weight="normal" text-decoration="none" x="200" y="60">UNREGISTERED</text><text fill="#eeeeee" stroke="none" font-family="Arial" font-size="24px" font-style="normal" font-weight="normal" text-decoration="none" x="200" y="90">UNREGISTERED</text><text fill="#eeeeee" stroke="none" font-family="Arial" font-size="24px" font-style="normal" font-weight="normal" text-decoration="none" x="200" y="120">UNREGISTERED</text><text fill="#eeeeee" stroke="none" font-family="Arial" font-size="24px" font-style="normal" font-weight="normal" text-decoration="none" x="200" y="150">UNREGISTERED</text><text fill="#eeeeee" stroke="none" font-family="Arial" font-size="24px" font-style="normal" font-weight="normal" text-decoration="none" x="200" y="180">UNREGISTERED</text><text fill="#eeeeee" stroke="none" font-family="Arial" font-size="24px" font-style="normal" font-weight="normal" text-decoration="none" x="200" y="210">UNREGISTERED</text><text fill="#eeeeee" stroke="none" font-family="Arial" font-size="24px" font-style="normal" font-weight="normal" text-decoration="none" x="200" y="240">UNREGISTERED</text><text fill="#eeeeee" stroke="none" font-family="Arial" font-size="24px" font-style="normal" font-weight="normal" text-decoration="none" x="200" y="270">UNREGISTERED</text><text fill="#eeeeee" stroke="none" font-family="Arial" font-size="24px" font-style="normal" font-weight="normal" text-decoration="none" x="200" y="300">UNREGISTERED</text><text fill="#eeeeee" stroke="none" font-family="Arial" font-size="24px" font-style="normal" font-weight="normal" text-decoration="none" x="200" y="330">UNREGISTERED</text><text fill="#eeeeee" stroke="none" font-family="Arial" font-size="24px" font-style="normal" font-weight="normal" text-decoration="none" x="200" y="360">UNREGISTERED</text><text fill="#eeeeee" stroke="none" font-family="Arial" font-size="24px" font-style="normal" font-weight="normal" text-decoration="none" x="200" y="390">UNREGISTERED</text><text fill="#eeeeee" stroke="none" font-family="Arial" font-size="24px" font-style="normal" font-weight="normal" text-decoration="none" x="200" y="420">UNREGISTERED</text><text fill="#eeeeee" stroke="none" font-family="Arial" font-size="24px" font-style="normal" font-weight="normal" text-decoration="none" x="200" y="450">UNREGISTERED</text><text fill="#eeeeee" stroke="none" font-family="Arial" font-size="24px" font-style="normal" font-weight="normal" text-decoration="none" x="200" y="480">UNREGISTERED</text><text fill="#eeeeee" stroke="none" font-family="Arial" font-size="24px" font-style="normal" font-weight="normal" text-decoration="none" x="200" y="510">UNREGISTERED</text><text fill="#eeeeee" stroke="none" font-family="Arial" font-size="24px" font-style="normal" font-weight="normal" text-decoration="none" x="200" y="540">UNREGISTERED</text><text fill="#eeeeee" stroke="none" font-family="Arial" font-size="24px" font-style="normal" font-weight="normal" text-decoration="none" x="400" y="0">UNREGISTERED</text><text fill="#eeeeee" stroke="none" font-family="Arial" font-size="24px" font-style="normal" font-weight="normal" text-decoration="none" x="400" y="30">UNREGISTERED</text><text fill="#eeeeee" stroke="none" font-family="Arial" font-size="24px" font-style="normal" font-weight="normal" text-decoration="none" x="400" y="60">UNREGISTERED</text><text fill="#eeeeee" stroke="none" font-family="Arial" font-size="24px" font-style="normal" font-weight="normal" text-decoration="none" x="400" y="90">UNREGISTERED</text><text fill="#eeeeee" stroke="none" font-family="Arial" font-size="24px" font-style="normal" font-weight="normal" text-decoration="none" x="400" y="120">UNREGISTERED</text><text fill="#eeeeee" stroke="none" font-family="Arial" font-size="24px" font-style="normal" font-weight="normal" text-decoration="none" x="400" y="150">UNREGISTERED</text><text fill="#eeeeee" stroke="none" font-family="Arial" font-size="24px" font-style="normal" font-weight="normal" text-decoration="none" x="400" y="180">UNREGISTERED</text><text fill="#eeeeee" stroke="none" font-family="Arial" font-size="24px" font-style="normal" font-weight="normal" text-decoration="none" x="400" y="210">UNREGISTERED</text><text fill="#eeeeee" stroke="none" font-family="Arial" font-size="24px" font-style="normal" font-weight="normal" text-decoration="none" x="400" y="240">UNREGISTERED</text><text fill="#eeeeee" stroke="none" font-family="Arial" font-size="24px" font-style="normal" font-weight="normal" text-decoration="none" x="400" y="270">UNREGISTERED</text><text fill="#eeeeee" stroke="none" font-family="Arial" font-size="24px" font-style="normal" font-weight="normal" text-decoration="none" x="400" y="300">UNREGISTERED</text><text fill="#eeeeee" stroke="none" font-family="Arial" font-size="24px" font-style="normal" font-weight="normal" text-decoration="none" x="400" y="330">UNREGISTERED</text><text fill="#eeeeee" stroke="none" font-family="Arial" font-size="24px" font-style="normal" font-weight="normal" text-decoration="none" x="400" y="360">UNREGISTERED</text><text fill="#eeeeee" stroke="none" font-family="Arial" font-size="24px" font-style="normal" font-weight="normal" text-decoration="none" x="400" y="390">UNREGISTERED</text><text fill="#eeeeee" stroke="none" font-family="Arial" font-size="24px" font-style="normal" font-weight="normal" text-decoration="none" x="400" y="420">UNREGISTERED</text><text fill="#eeeeee" stroke="none" font-family="Arial" font-size="24px" font-style="normal" font-weight="normal" text-decoration="none" x="400" y="450">UNREGISTERED</text><text fill="#eeeeee" stroke="none" font-family="Arial" font-size="24px" font-style="normal" font-weight="normal" text-decoration="none" x="400" y="480">UNREGISTERED</text><text fill="#eeeeee" stroke="none" font-family="Arial" font-size="24px" font-style="normal" font-weight="normal" text-decoration="none" x="400" y="510">UNREGISTERED</text><text fill="#eeeeee" stroke="none" font-family="Arial" font-size="24px" font-style="normal" font-weight="normal" text-decoration="none" x="400" y="540">UNREGISTERED</text><text fill="#eeeeee" stroke="none" font-family="Arial" font-size="24px" font-style="normal" font-weight="normal" text-decoration="none" x="600" y="0">UNREGISTERED</text><text fill="#eeeeee" stroke="none" font-family="Arial" font-size="24px" font-style="normal" font-weight="normal" text-decoration="none" x="600" y="30">UNREGISTERED</text><text fill="#eeeeee" stroke="none" font-family="Arial" font-size="24px" font-style="normal" font-weight="normal" text-decoration="none" x="600" y="60">UNREGISTERED</text><text fill="#eeeeee" stroke="none" font-family="Arial" font-size="24px" font-style="normal" font-weight="normal" text-decoration="none" x="600" y="90">UNREGISTERED</text><text fill="#eeeeee" stroke="none" font-family="Arial" font-size="24px" font-style="normal" font-weight="normal" text-decoration="none" x="600" y="120">UNREGISTERED</text><text fill="#eeeeee" stroke="none" font-family="Arial" font-size="24px" font-style="normal" font-weight="normal" text-decoration="none" x="600" y="150">UNREGISTERED</text><text fill="#eeeeee" stroke="none" font-family="Arial" font-size="24px" font-style="normal" font-weight="normal" text-decoration="none" x="600" y="180">UNREGISTERED</text><text fill="#eeeeee" stroke="none" font-family="Arial" font-size="24px" font-style="normal" font-weight="normal" text-decoration="none" x="600" y="210">UNREGISTERED</text><text fill="#eeeeee" stroke="none" font-family="Arial" font-size="24px" font-style="normal" font-weight="normal" text-decoration="none" x="600" y="240">UNREGISTERED</text><text fill="#eeeeee" stroke="none" font-family="Arial" font-size="24px" font-style="normal" font-weight="normal" text-decoration="none" x="600" y="270">UNREGISTERED</text><text fill="#eeeeee" stroke="none" font-family="Arial" font-size="24px" font-style="normal" font-weight="normal" text-decoration="none" x="600" y="300">UNREGISTERED</text><text fill="#eeeeee" stroke="none" font-family="Arial" font-size="24px" font-style="normal" font-weight="normal" text-decoration="none" x="600" y="330">UNREGISTERED</text><text fill="#eeeeee" stroke="none" font-family="Arial" font-size="24px" font-style="normal" font-weight="normal" text-decoration="none" x="600" y="360">UNREGISTERED</text><text fill="#eeeeee" stroke="none" font-family="Arial" font-size="24px" font-style="normal" font-weight="normal" text-decoration="none" x="600" y="390">UNREGISTERED</text><text fill="#eeeeee" stroke="none" font-family="Arial" font-size="24px" font-style="normal" font-weight="normal" text-decoration="none" x="600" y="420">UNREGISTERED</text><text fill="#eeeeee" stroke="none" font-family="Arial" font-size="24px" font-style="normal" font-weight="normal" text-decoration="none" x="600" y="450">UNREGISTERED</text><text fill="#eeeeee" stroke="none" font-family="Arial" font-size="24px" font-style="normal" font-weight="normal" text-decoration="none" x="600" y="480">UNREGISTERED</text><text fill="#eeeeee" stroke="none" font-family="Arial" font-size="24px" font-style="normal" font-weight="normal" text-decoration="none" x="600" y="510">UNREGISTERED</text><text fill="#eeeeee" stroke="none" font-family="Arial" font-size="24px" font-style="normal" font-weight="normal" text-decoration="none" x="600" y="540">UNREGISTERED</text><g transform="translate(-606,-94) scale(1,1)"><rect fill="#C0C0C0" stroke="none" x="779" y="561" width="181.3515625" height="78" opacity="0.2"/></g><g transform="translate(-606,-94) scale(1,1)"><rect fill="#ffffff" stroke="none" x="772" y="554" width="181.3515625" height="78"/></g><g transform="translate(-606,-94) scale(1,1)"><path fill="none" stroke="#000000" d="M 772 554 L 953.3515625 554 L 953.3515625 632 L 772 632 L 772 554 Z Z" stroke-miterlimit="10"/></g><g transform="translate(-606,-94) scale(1,1)"><path fill="none" stroke="#000000" d="M 772 579 L 953.3515625 579" stroke-miterlimit="10"/></g><g transform="translate(-606,-94) scale(1,1)"><path fill="none" stroke="#000000" d="M 772 617 L 953.3515625 617" stroke-miterlimit="10"/></g><g transform="translate(-606,-94) scale(1,1)"><g><path fill="none" stroke="none"/><text fill="#000000" stroke="none" font-family="Arial" font-size="13px" font-style="normal" font-weight="bold" text-decoration="none" x="788.611328125" y="573.5">DocumentImplementation</text></g></g><g transform="translate(-606,-94) scale(1,1)"><g><path fill="none" stroke="none"/><text fill="#000000" stroke="none" font-family="Arial" font-size="13px" font-style="normal" font-weight="normal" text-decoration="none" x="777" y="596.5">-title: String</text></g></g><g transform="translate(-606,-94) scale(1,1)"><g><path fill="none" stroke="none"/><text fill="#000000" stroke="none" font-family="Arial" font-size="13px" font-style="normal" font-weight="normal" text-decoration="none" x="777" y="611.5">-content: TextArea</text></g></g><g transform="translate(-606,-94) scale(1,1)"><rect fill="#C0C0C0" stroke="none" x="1215" y="119" width="131.80810546875" height="72" opacity="0.2"/></g><g transform="translate(-606,-94) scale(1,1)"><rect fill="#ffffff" stroke="none" x="1208" y="112" width="131.80810546875" height="72"/></g><g transform="translate(-606,-94) scale(1,1)"><path fill="none" stroke="#000000" d="M 1208 112 L 1339.80810546875 112 L 1339.80810546875 184 L 1208 184 L 1208 112 Z Z" stroke-miterlimit="10"/></g><g transform="translate(-606,-94) scale(1,1)"><path fill="none" stroke="#000000" d="M 1208 137 L 1339.80810546875 137" stroke-miterlimit="10"/></g><g transform="translate(-606,-94) scale(1,1)"><path fill="none" stroke="#000000" d="M 1208 175 L 1339.80810546875 175" stroke-miterlimit="10"/></g><g transform="translate(-606,-94) scale(1,1)"><g><path fill="none" stroke="none"/><text fill="#000000" stroke="none" font-family="Arial" font-size="13px" font-style="normal" font-weight="bold" text-decoration="none" x="1216.4609375" y="131.5">DocumentResource</text></g></g><g transform="translate(-606,-94) scale(1,1)"><g><path fill="none" stroke="none"/><text fill="#000000" stroke="none" font-family="Arial" font-size="13px" font-style="normal" font-weight="normal" text-decoration="none" x="1213" y="154.5">-title: String</text></g></g><g transform="translate(-606,-94) scale(1,1)"><g><path fill="none" stroke="none"/><text fill="#000000" stroke="none" font-family="Arial" font-size="13px" font-style="normal" font-weight="normal" text-decoration="none" x="1213" y="169.5">-content: MarkDown</text></g></g><g transform="translate(-606,-94) scale(1,1)"><rect fill="#C0C0C0" stroke="none" x="1023" y="559" width="242.0224609375" height="72" opacity="0.2"/></g><g transform="translate(-606,-94) scale(1,1)"><rect fill="#ffffff" stroke="none" x="1016" y="552" width="242.0224609375" height="72"/></g><g transform="translate(-606,-94) scale(1,1)"><path fill="none" stroke="#000000" d="M 1016 552 L 1258.0224609375 552 L 1258.0224609375 624 L 1016 624 L 1016 552 Z Z" stroke-miterlimit="10"/></g><g transform="translate(-606,-94) scale(1,1)"><path fill="none" stroke="#000000" d="M 1016 577 L 1258.0224609375 577" stroke-miterlimit="10"/></g><g transform="translate(-606,-94) scale(1,1)"><path fill="none" stroke="#000000" d="M 1016 587 L 1258.0224609375 587" stroke-miterlimit="10"/></g><g transform="translate(-606,-94) scale(1,1)"><g><path fill="none" stroke="none"/><text fill="#000000" stroke="none" font-family="Arial" font-size="13px" font-style="normal" font-weight="bold" text-decoration="none" x="1091.84765625" y="571.5">DocumentRepo</text></g></g><g transform="translate(-606,-94) scale(1,1)"><g><path fill="none" stroke="none"/><text fill="#000000" stroke="none" font-family="Arial" font-size="13px" font-style="normal" font-weight="normal" text-decoration="none" x="1021" y="604.5">+findByID(id: String): Document</text></g></g><g transform="translate(-606,-94) scale(1,1)"><g><path fill="none" stroke="none"/><text fill="#000000" stroke="none" font-family="Arial" font-size="13px" font-style="normal" font-weight="normal" text-decoration="none" x="1021" y="619.5">+existByID(id: String): Boolean</text></g></g><g transform="translate(-606,-94) scale(1,1)"><path fill="#C0C0C0" stroke="none" d="M 852.279541015625 494 C 852.279541015625 485.715728 858.995269015625 479 867.279541015625 479 C 875.563813015625 479 882.279541015625 485.715728 882.279541015625 494 C 882.279541015625 502.284272 875.563813015625 509 867.279541015625 509 C 858.995269015625 509 852.279541015625 502.284272 852.279541015625 494 Z" opacity="0.2"/></g><g transform="translate(-606,-94) scale(1,1)"><path fill="#ffffff" stroke="none" d="M 845.279541015625 487 C 845.279541015625 478.715728 851.995269015625 472 860.279541015625 472 C 868.563813015625 472 875.279541015625 478.715728 875.279541015625 487 C 875.279541015625 495.284272 868.563813015625 502 860.279541015625 502 C 851.995269015625 502 845.279541015625 495.284272 845.279541015625 487 Z"/></g><g transform="translate(-606,-94) scale(1,1)"><path fill="none" stroke="#000000" d="M 845.279541015625 487 C 845.279541015625 478.715728 851.995269015625 472 860.279541015625 472 C 868.563813015625 472 875.279541015625 478.715728 875.279541015625 487 C 875.279541015625 495.284272 868.563813015625 502 860.279541015625 502 C 851.995269015625 502 845.279541015625 495.284272 845.279541015625 487 Z" stroke-miterlimit="10"/></g><g transform="translate(-606,-94) scale(1,1)"><g><path fill="none" stroke="none"/><text fill="#000000" stroke="none" font-family="Arial" font-size="13px" font-style="normal" font-weight="bold" text-decoration="none" x="830.655029296875" y="521.5">Document</text></g></g><g transform="translate(-606,-94) scale(1,1)"><path fill="none" stroke="#000000" d="M 861 553 L 860.3658536585366 502" stroke-miterlimit="10"/></g><g transform="translate(-606,-94) scale(1,1)"><path fill="none" stroke="#000000" d="M 1015 590 L 954 591" stroke-miterlimit="10"/></g><g transform="translate(-606,-94) scale(1,1)"><rect fill="#C0C0C0" stroke="none" x="623" y="287" width="481.8876953125" height="117" opacity="0.2"/></g><g transform="translate(-606,-94) scale(1,1)"><rect fill="#ffffff" stroke="none" x="616" y="280" width="481.8876953125" height="117"/></g><g transform="translate(-606,-94) scale(1,1)"><path fill="none" stroke="#000000" d="M 616 280 L 1097.8876953125 280 L 1097.8876953125 397 L 616 397 L 616 280 Z Z" stroke-miterlimit="10"/></g><g transform="translate(-606,-94) scale(1,1)"><path fill="none" stroke="#000000" d="M 616 305 L 1097.8876953125 305" stroke-miterlimit="10"/></g><g transform="translate(-606,-94) scale(1,1)"><path fill="none" stroke="#000000" d="M 616 315 L 1097.8876953125 315" stroke-miterlimit="10"/></g><g transform="translate(-606,-94) scale(1,1)"><g><path fill="none" stroke="none"/><text fill="#000000" stroke="none" font-family="Arial" font-size="13px" font-style="normal" font-weight="bold" text-decoration="none" x="805.645263671875" y="299.5">DocumentService</text></g></g><g transform="translate(-606,-94) scale(1,1)"><g><path fill="none" stroke="none"/><text fill="#000000" stroke="none" font-family="Arial" font-size="13px" font-style="normal" font-weight="normal" text-decoration="none" x="621" y="332.5">+createDocument(userResource: DocumentResource): Document</text></g></g><g transform="translate(-606,-94) scale(1,1)"><g><path fill="none" stroke="none"/><text fill="#000000" stroke="none" font-family="Arial" font-size="13px" font-style="normal" font-weight="normal" text-decoration="none" x="621" y="347.5">+deleteDocument(id: String): Document</text></g></g><g transform="translate(-606,-94) scale(1,1)"><g><path fill="none" stroke="none"/><text fill="#000000" stroke="none" font-family="Arial" font-size="13px" font-style="normal" font-weight="normal" text-decoration="none" x="621" y="362.5">+getDocument(id: String): Document</text></g></g><g transform="translate(-606,-94) scale(1,1)"><g><path fill="none" stroke="none"/><text fill="#000000" stroke="none" font-family="Arial" font-size="13px" font-style="normal" font-weight="normal" text-decoration="none" x="621" y="377.5">+updateDocument(userResource: DocumentResource): Document</text></g></g><g transform="translate(-606,-94) scale(1,1)"><path fill="none" stroke="#000000" d="M 859 471 L 857 398" stroke-miterlimit="10"/></g><g transform="translate(-606,-94) scale(1,1)"><path fill="#FFFFFF" stroke="none" d="M 861.486263803059 408.0435769071264 L 857 398 L 853.0703862189371 408.2741488957325 L 857.6025136421013 419.9917479366939"/></g><g transform="translate(-606,-94) scale(1,1)"><path fill="none" stroke="#000000" d="M 861.486263803059 408.0435769071264 L 857 398 L 853.0703862189371 408.2741488957325 L 857.6025136421013 419.9917479366939 L 861.486263803059 408.0435769071264" stroke-miterlimit="10"/></g><g transform="translate(-606,-94) scale(1,1)"><path fill="none" stroke="#000000" d="M 1082 151 L 1207 149" stroke-miterlimit="10" stroke-dasharray="3"/></g><g transform="translate(-606,-94) scale(1,1)"><path fill="none" stroke="#000000" d="M 1196.9059693797117 153.3715610297334 L 1207 149 L 1196.7712820503941 144.9536029473849" stroke-miterlimit="10"/></g><g transform="translate(-606,-94) scale(1,1)"><rect fill="#C0C0C0" stroke="none" x="639" y="111" width="448.7021484375" height="102" opacity="0.2"/></g><g transform="translate(-606,-94) scale(1,1)"><rect fill="#ffffff" stroke="none" x="632" y="104" width="448.7021484375" height="102"/></g><g transform="translate(-606,-94) scale(1,1)"><path fill="none" stroke="#000000" d="M 632 104 L 1080.7021484375 104 L 1080.7021484375 206 L 632 206 L 632 104 Z Z" stroke-miterlimit="10"/></g><g transform="translate(-606,-94) scale(1,1)"><path fill="none" stroke="#000000" d="M 632 129 L 1080.7021484375 129" stroke-miterlimit="10"/></g><g transform="translate(-606,-94) scale(1,1)"><path fill="none" stroke="#000000" d="M 632 139 L 1080.7021484375 139" stroke-miterlimit="10"/></g><g transform="translate(-606,-94) scale(1,1)"><g><path fill="none" stroke="none"/><text fill="#000000" stroke="none" font-family="Arial" font-size="13px" font-style="normal" font-weight="bold" text-decoration="none" x="798.54931640625" y="123.5">DocumentController</text></g></g><g transform="translate(-606,-94) scale(1,1)"><g><path fill="none" stroke="none"/><text fill="#000000" stroke="none" font-family="Arial" font-size="13px" font-style="normal" font-weight="normal" text-decoration="none" x="637" y="156.5">+createDocument(documentResource: DocumentResource): HttpResponce</text></g></g><g transform="translate(-606,-94) scale(1,1)"><g><path fill="none" stroke="none"/><text fill="#000000" stroke="none" font-family="Arial" font-size="13px" font-style="normal" font-weight="normal" text-decoration="none" x="637" y="171.5">+getDocument(id: String): HttpResponce</text></g></g><g transform="translate(-606,-94) scale(1,1)"><g><path fill="none" stroke="none"/><text fill="#000000" stroke="none" font-family="Arial" font-size="13px" font-style="normal" font-weight="normal" text-decoration="none" x="637" y="186.5">+updateDocument(documentResource: DocumentResource): HttpResponce</text></g></g><g transform="translate(-606,-94) scale(1,1)"><g><path fill="none" stroke="none"/><text fill="#000000" stroke="none" font-family="Arial" font-size="13px" font-style="normal" font-weight="normal" text-decoration="none" x="637" y="201.5">+deleteDocument(id: String): HttpResponce</text></g></g><g transform="translate(-606,-94) scale(1,1)"><path fill="none" stroke="#000000" d="M 856 279 L 856 207" stroke-miterlimit="10"/></g><g transform="translate(-606,-94) scale(1,1)"><path fill="#FFFFFF" stroke="none" d="M 860.209517756016 217.16267485762415 L 856 207 L 851.790482243984 217.16267485762415 L 856 229"/></g><g transform="translate(-606,-94) scale(1,1)"><path fill="none" stroke="#000000" d="M 860.209517756016 217.16267485762415 L 856 207 L 851.790482243984 217.16267485762415 L 856 229 L 860.209517756016 217.16267485762415" stroke-miterlimit="10"/></g></g></svg>