<svg version="1.1" xmlns="http://www.w3.org/2000/svg" xmlns:xlink="http://www.w3.org/1999/xlink" width="742.38525390625" height="555"><defs/><g><text fill="#eeeeee" stroke="none" font-family="Arial" font-size="24px" font-style="normal" font-weight="normal" text-decoration="none" x="0" y="0">UNREGISTERED</text><text fill="#eeeeee" stroke="none" font-family="Arial" font-size="24px" font-style="normal" font-weight="normal" text-decoration="none" x="0" y="30">UNREGISTERED</text><text fill="#eeeeee" stroke="none" font-family="Arial" font-size="24px" font-style="normal" font-weight="normal" text-decoration="none" x="0" y="60">UNREGISTERED</text><text fill="#eeeeee" stroke="none" font-family="Arial" font-size="24px" font-style="normal" font-weight="normal" text-decoration="none" x="0" y="90">UNREGISTERED</text><text fill="#eeeeee" stroke="none" font-family="Arial" font-size="24px" font-style="normal" font-weight="normal" text-decoration="none" x="0" y="120">UNREGISTERED</text><text fill="#eeeeee" stroke="none" font-family="Arial" font-size="24px" font-style="normal" font-weight="normal" text-decoration="none" x="0" y="150">UNREGISTERED</text><text fill="#eeeeee" stroke="none" font-family="Arial" font-size="24px" font-style="normal" font-weight="normal" text-decoration="none" x="0" y="180">UNREGISTERED</text><text fill="#eeeeee" stroke="none" font-family="Arial" font-size="24px" font-style="normal" font-weight="normal" text-decoration="none" x="0" y="210">UNREGISTERED</text><text fill="#eeeeee" stroke="none" font-family="Arial" font-size="24px" font-style="normal" font-weight="normal" text-decoration="none" x="0" y="240">UNREGISTERED</text><text fill="#eeeeee" stroke="none" font-family="Arial" font-size="24px" font-style="normal" font-weight="normal" text-decoration="none" x="0" y="270">UNREGISTERED</text><text fill="#eeeeee" stroke="none" font-family="Arial" font-size="24px" font-style="normal" font-weight="normal" text-decoration="none" x="0" y="300">UNREGISTERED</text><text fill="#eeeeee" stroke="none" font-family="Arial" font-size="24px" font-style="normal" font-weight="normal" text-decoration="none" x="0" y="330">UNREGISTERED</text><text fill="#eeeeee" stroke="none" font-family="Arial" font-size="24px" font-style="normal" font-weight="normal" text-decoration="none" x="0" y="360">UNREGISTERED</text><text fill="#eeeeee" stroke="none" font-family="Arial" font-size="24px" font-style="normal" font-weight="normal" text-decoration="none" x="0" y="390">UNREGISTERED</text><text fill="#eeeeee" stroke="none" font-family="Arial" font-size="24px" font-style="normal" font-weight="normal" text-decoration="none" x="0" y="420">UNREGISTERED</text><text fill="#eeeeee" stroke="none" font-family="Arial" font-size="24px" font-style="normal" font-weight="normal" text-decoration="none" x="0" y="450">UNREGISTERED</text><text fill="#eeeeee" stroke="none" font-family="Arial" font-size="24px" font-style="normal" font-weight="normal" text-decoration="none" x="0" y="480">UNREGISTERED</text><text fill="#eeeeee" stroke="none" font-family="Arial" font-size="24px" font-style="normal" font-weight="normal" text-decoration="none" x="0" y="510">UNREGISTERED</text><text fill="#eeeeee" stroke="none" font-family="Arial" font-size="24px" font-style="normal" font-weight="normal" text-decoration="none" x="0" y="540">UNREGISTERED</text><text fill="#eeeeee" stroke="none" font-family="Arial" font-size="24px" font-style="normal" font-weight="normal" text-decoration="none" x="200" y="0">UNREGISTERED</text><text fill="#eeeeee" stroke="none" font-family="Arial" font-size="24px" font-style="normal" font-weight="normal" text-decoration="none" x="200" y="30">UNREGISTERED</text><text fill="#eeeeee" stroke="none" font-family="Arial" font-size="24px" font-style="normal" font-weight="normal" text-decoration="none" x="200" y="60">UNREGISTERED</text><text fill="#eeeeee" stroke="none" font-family="Arial" font-size="24px" font-style="normal" font-weight="normal" text-decoration="none" x="200" y="90">UNREGISTERED</text><text fill="#eeeeee" stroke="none" font-family="Arial" font-size="24px" font-style="normal" font-weight="normal" text-decoration="none" x="200" y="120">UNREGISTERED</text><text fill="#eeeeee" stroke="none" font-family="Arial" font-size="24px" font-style="normal" font-weight="normal" text-decoration="none" x="200" y="150">UNREGISTERED</text><text fill="#eeeeee" stroke="none" font-family="Arial" font-size="24px" font-style="normal" font-weight="normal" text-decoration="none" x="200" y="180">UNREGISTERED</text><text fill="#eeeeee" stroke="none" font-family="Arial" font-size="24px" font-style="normal" font-weight="normal" text-decoration="none" x="200" y="210">UNREGISTERED</text><text fill="#eeeeee" stroke="none" font-family="Arial" font-size="24px" font-style="normal" font-weight="normal" text-decoration="none" x="200" y="240">UNREGISTERED</text><text fill="#eeeeee" stroke="none" font-family="Arial" font-size="24px" font-style="normal" font-weight="normal" text-decoration="none" x="200" y="270">UNREGISTERED</text><text fill="#eeeeee" stroke="none" font-family="Arial" font-size="24px" font-style="normal" font-weight="normal" text-decoration="none" x="200" y="300">UNREGISTERED</text><text fill="#eeeeee" stroke="none" font-family="Arial" font-size="24px" font-style="normal" font-weight="normal" text-decoration="none" x="200" y="330">UNREGISTERED</text><text fill="#eeeeee" stroke="none" font-family="Arial" font-size="24px" font-style="normal" font-weight="normal" text-decoration="none" x="200" y="360">UNREGISTERED</text><text fill="#eeeeee" stroke="none" font-family="Arial" font-size="24px" font-style="normal" font-weight="normal" text-decoration="none" x="200" y="390">UNREGISTERED</text><text fill="#eeeeee" stroke="none" font-family="Arial" font-size="24px" font-style="normal" font-weight="normal" text-decoration="none" x="200" y="420">UNREGISTERED</text><text fill="#eeeeee" stroke="none" font-family="Arial" font-size="24px" font-style="normal" font-weight="normal" text-decoration="none" x="200" y="450">UNREGISTERED</text><text fill="#eeeeee" stroke="none" font-family="Arial" font-size="24px" font-style="normal" font-weight="normal" text-decoration="none" x="200" y="480">UNREGISTERED</text><text fill="#eeeeee" stroke="none" font-family="Arial" font-size="24px" font-style="normal" font-weight="normal" text-decoration="none" x="200" y="510">UNREGISTERED</text><text fill="#eeeeee" stroke="none" font-family="Arial" font-size="24px" font-style="normal" font-weight="normal" text-decoration="none" x="200" y="540">UNREGISTERED</text><text fill="#eeeeee" stroke="none" font-family="Arial" font-size="24px" font-style="normal" font-weight="normal" text-decoration="none" x="400" y="0">UNREGISTERED</text><text fill="#eeeeee" stroke="none" font-family="Arial" font-size="24px" font-style="normal" font-weight="normal" text-decoration="none" x="400" y="30">UNREGISTERED</text><text fill="#eeeeee" stroke="none" font-family="Arial" font-size="24px" font-style="normal" font-weight="normal" text-decoration="none" x="400" y="60">UNREGISTERED</text><text fill="#eeeeee" stroke="none" font-family="Arial" font-size="24px" font-style="normal" font-weight="normal" text-decoration="none" x="400" y="90">UNREGISTERED</text><text fill="#eeeeee" stroke="none" font-family="Arial" font-size="24px" font-style="normal" font-weight="normal" text-decoration="none" x="400" y="120">UNREGISTERED</text><text fill="#eeeeee" stroke="none" font-family="Arial" font-size="24px" font-style="normal" font-weight="normal" text-decoration="none" x="400" y="150">UNREGISTERED</text><text fill="#eeeeee" stroke="none" font-family="Arial" font-size="24px" font-style="normal" font-weight="normal" text-decoration="none" x="400" y="180">UNREGISTERED</text><text fill="#eeeeee" stroke="none" font-family="Arial" font-size="24px" font-style="normal" font-weight="normal" text-decoration="none" x="400" y="210">UNREGISTERED</text><text fill="#eeeeee" stroke="none" font-family="Arial" font-size="24px" font-style="normal" font-weight="normal" text-decoration="none" x="400" y="240">UNREGISTERED</text><text fill="#eeeeee" stroke="none" font-family="Arial" font-size="24px" font-style="normal" font-weight="normal" text-decoration="none" x="400" y="270">UNREGISTERED</text><text fill="#eeeeee" stroke="none" font-family="Arial" font-size="24px" font-style="normal" font-weight="normal" text-decoration="none" x="400" y="300">UNREGISTERED</text><text fill="#eeeeee" stroke="none" font-family="Arial" font-size="24px" font-style="normal" font-weight="normal" text-decoration="none" x="400" y="330">UNREGISTERED</text><text fill="#eeeeee" stroke="none" font-family="Arial" font-size="24px" font-style="normal" font-weight="normal" text-decoration="none" x="400" y="360">UNREGISTERED</text><text fill="#eeeeee" stroke="none" font-family="Arial" font-size="24px" font-style="normal" font-weight="normal" text-decoration="none" x="400" y="390">UNREGISTERED</text><text fill="#eeeeee" stroke="none" font-family="Arial" font-size="24px" font-style="normal" font-weight="normal" text-decoration="none" x="400" y="420">UNREGISTERED</text><text fill="#eeeeee" stroke="none" font-family="Arial" font-size="24px" font-style="normal" font-weight="normal" text-decoration="none" x="400" y="450">UNREGISTERED</text><text fill="#eeeeee" stroke="none" font-family="Arial" font-size="24px" font-style="normal" font-weight="normal" text-decoration="none" x="400" y="480">UNREGISTERED</text><text fill="#eeeeee" stroke="none" font-family="Arial" font-size="24px" font-style="normal" font-weight="normal" text-decoration="none" x="400" y="510">UNREGISTERED</text><text fill="#eeeeee" stroke="none" font-family="Arial" font-size="24px" font-style="normal" font-weight="normal" text-decoration="none" x="400" y="540">UNREGISTERED</text><text fill="#eeeeee" stroke="none" font-family="Arial" font-size="24px" font-style="normal" font-weight="normal" text-decoration="none" x="600" y="0">UNREGISTERED</text><text fill="#eeeeee" stroke="none" font-family="Arial" font-size="24px" font-style="normal" font-weight="normal" text-decoration="none" x="600" y="30">UNREGISTERED</text><text fill="#eeeeee" stroke="none" font-family="Arial" font-size="24px" font-style="normal" font-weight="normal" text-decoration="none" x="600" y="60">UNREGISTERED</text><text fill="#eeeeee" stroke="none" font-family="Arial" font-size="24px" font-style="normal" font-weight="normal" text-decoration="none" x="600" y="90">UNREGISTERED</text><text fill="#eeeeee" stroke="none" font-family="Arial" font-size="24px" font-style="normal" font-weight="normal" text-decoration="none" x="600" y="120">UNREGISTERED</text><text fill="#eeeeee" stroke="none" font-family="Arial" font-size="24px" font-style="normal" font-weight="normal" text-decoration="none" x="600" y="150">UNREGISTERED</text><text fill="#eeeeee" stroke="none" font-family="Arial" font-size="24px" font-style="normal" font-weight="normal" text-decoration="none" x="600" y="180">UNREGISTERED</text><text fill="#eeeeee" stroke="none" font-family="Arial" font-size="24px" font-style="normal" font-weight="normal" text-decoration="none" x="600" y="210">UNREGISTERED</text><text fill="#eeeeee" stroke="none" font-family="Arial" font-size="24px" font-style="normal" font-weight="normal" text-decoration="none" x="600" y="240">UNREGISTERED</text><text fill="#eeeeee" stroke="none" font-family="Arial" font-size="24px" font-style="normal" font-weight="normal" text-decoration="none" x="600" y="270">UNREGISTERED</text><text fill="#eeeeee" stroke="none" font-family="Arial" font-size="24px" font-style="normal" font-weight="normal" text-decoration="none" x="600" y="300">UNREGISTERED</text><text fill="#eeeeee" stroke="none" font-family="Arial" font-size="24px" font-style="normal" font-weight="normal" text-decoration="none" x="600" y="330">UNREGISTERED</text><text fill="#eeeeee" stroke="none" font-family="Arial" font-size="24px" font-style="normal" font-weight="normal" text-decoration="none" x="600" y="360">UNREGISTERED</text><text fill="#eeeeee" stroke="none" font-family="Arial" font-size="24px" font-style="normal" font-weight="normal" text-decoration="none" x="600" y="390">UNREGISTERED</text><text fill="#eeeeee" stroke="none" font-family="Arial" font-size="24px" font-style="normal" font-weight="normal" text-decoration="none" x="600" y="420">UNREGISTERED</text><text fill="#eeeeee" stroke="none" font-family="Arial" font-size="24px" font-style="normal" font-weight="normal" text-decoration="none" x="600" y="450">UNREGISTERED</text><text fill="#eeeeee" stroke="none" font-family="Arial" font-size="24px" font-style="normal" font-weight="normal" text-decoration="none" x="600" y="480">UNREGISTERED</text><text fill="#eeeeee" stroke="none" font-family="Arial" font-size="24px" font-style="normal" font-weight="normal" text-decoration="none" x="600" y="510">UNREGISTERED</text><text fill="#eeeeee" stroke="none" font-family="Arial" font-size="24px" font-style="normal" font-weight="normal" text-decoration="none" x="600" y="540">UNREGISTERED</text><g transform="translate(-366,-14) scale(1,1)"><rect fill="#C0C0C0" stroke="none" x="415" y="479" width="373.55224609375" height="87" opacity="0.2"/></g><g transform="translate(-366,-14) scale(1,1)"><rect fill="#ffffff" stroke="none" x="408" y="472" width="373.55224609375" height="87"/></g><g transform="translate(-366,-14) scale(1,1)"><path fill="none" stroke="#000000" d="M 408 472 L 781.55224609375 472 L 781.55224609375 559 L 408 559 L 408 472 Z Z" stroke-miterlimit="10"/></g><g transform="translate(-366,-14) scale(1,1)"><path fill="none" stroke="#000000" d="M 408 497 L 781.55224609375 497" stroke-miterlimit="10"/></g><g transform="translate(-366,-14) scale(1,1)"><path fill="none" stroke="#000000" d="M 408 550 L 781.55224609375 550" stroke-miterlimit="10"/></g><g transform="translate(-366,-14) scale(1,1)"><g><path fill="none" stroke="none"/><text fill="#000000" stroke="none" font-family="Arial" font-size="13px" font-style="normal" font-weight="bold" text-decoration="none" x="526.849853515625" y="491.5">AccountImplementation</text></g></g><g transform="translate(-366,-14) scale(1,1)"><g><path fill="none" stroke="none"/><text fill="#000000" stroke="none" font-family="Arial" font-size="13px" font-style="normal" font-weight="normal" text-decoration="none" x="413" y="514.5">-name: String</text></g></g><g transform="translate(-366,-14) scale(1,1)"><g><path fill="none" stroke="none"/><text fill="#000000" stroke="none" font-family="Arial" font-size="13px" font-style="normal" font-weight="normal" text-decoration="none" x="413" y="529.5">-phoneNumber: String</text></g></g><g transform="translate(-366,-14) scale(1,1)"><g><path fill="none" stroke="none"/><text fill="#000000" stroke="none" font-family="Arial" font-size="13px" font-style="normal" font-weight="normal" text-decoration="none" x="413" y="544.5">-users: User</text></g></g><g transform="translate(-366,-14) scale(1,1)"><path fill="#C0C0C0" stroke="none" d="M 583.5 398.5 C 583.5 389.9395856 590.4395856 383 599 383 C 607.5604144 383 614.5 389.9395856 614.5 398.5 C 614.5 407.0604144 607.5604144 414 599 414 C 590.4395856 414 583.5 407.0604144 583.5 398.5 Z" opacity="0.2"/></g><g transform="translate(-366,-14) scale(1,1)"><path fill="#ffffff" stroke="none" d="M 576.5 391.5 C 576.5 382.9395856 583.4395856 376 592 376 C 600.5604144 376 607.5 382.9395856 607.5 391.5 C 607.5 400.0604144 600.5604144 407 592 407 C 583.4395856 407 576.5 400.0604144 576.5 391.5 Z"/></g><g transform="translate(-366,-14) scale(1,1)"><path fill="none" stroke="#000000" d="M 576.5 391.5 C 576.5 382.9395856 583.4395856 376 592 376 C 600.5604144 376 607.5 382.9395856 607.5 391.5 C 607.5 400.0604144 600.5604144 407 592 407 C 583.4395856 407 576.5 400.0604144 576.5 391.5 Z" stroke-miterlimit="10"/></g><g transform="translate(-366,-14) scale(1,1)"><g><path fill="none" stroke="none"/><text fill="#000000" stroke="none" font-family="Arial" font-size="13px" font-style="normal" font-weight="bold" text-decoration="none" x="568.513671875" y="426.5">Account</text></g></g><g transform="translate(-366,-14) scale(1,1)"><path fill="none" stroke="#000000" d="M 593 471 L 592.3809523809524 407" stroke-miterlimit="10"/></g><g transform="translate(-366,-14) scale(1,1)"><rect fill="#C0C0C0" stroke="none" x="383" y="39" width="414.03125" height="102" opacity="0.2"/></g><g transform="translate(-366,-14) scale(1,1)"><rect fill="#ffffff" stroke="none" x="376" y="32" width="414.03125" height="102"/></g><g transform="translate(-366,-14) scale(1,1)"><path fill="none" stroke="#000000" d="M 376 32 L 790.03125 32 L 790.03125 134 L 376 134 L 376 32 Z Z" stroke-miterlimit="10"/></g><g transform="translate(-366,-14) scale(1,1)"><path fill="none" stroke="#000000" d="M 376 57 L 790.03125 57" stroke-miterlimit="10"/></g><g transform="translate(-366,-14) scale(1,1)"><path fill="none" stroke="#000000" d="M 376 67 L 790.03125 67" stroke-miterlimit="10"/></g><g transform="translate(-366,-14) scale(1,1)"><g><path fill="none" stroke="none"/><text fill="#000000" stroke="none" font-family="Arial" font-size="13px" font-style="normal" font-weight="bold" text-decoration="none" x="531.35205078125" y="51.5">AccountController</text></g></g><g transform="translate(-366,-14) scale(1,1)"><g><path fill="none" stroke="none"/><text fill="#000000" stroke="none" font-family="Arial" font-size="13px" font-style="normal" font-weight="normal" text-decoration="none" x="381" y="84.5">+createAccount(AccountResource: AccountResource): HttpResponce</text></g></g><g transform="translate(-366,-14) scale(1,1)"><g><path fill="none" stroke="none"/><text fill="#000000" stroke="none" font-family="Arial" font-size="13px" font-style="normal" font-weight="normal" text-decoration="none" x="381" y="99.5">+getAccount(id: String): HttpResponce</text></g></g><g transform="translate(-366,-14) scale(1,1)"><g><path fill="none" stroke="none"/><text fill="#000000" stroke="none" font-family="Arial" font-size="13px" font-style="normal" font-weight="normal" text-decoration="none" x="381" y="114.5">+updateAccount(AccountResource: AccountResource): HttpResponce</text></g></g><g transform="translate(-366,-14) scale(1,1)"><g><path fill="none" stroke="none"/><text fill="#000000" stroke="none" font-family="Arial" font-size="13px" font-style="normal" font-weight="normal" text-decoration="none" x="381" y="129.5">+deleteAccount(id: String): HttpResponce</text></g></g><g transform="translate(-366,-14) scale(1,1)"><rect fill="#C0C0C0" stroke="none" x="919" y="479" width="186.38525390625" height="72" opacity="0.2"/></g><g transform="translate(-366,-14) scale(1,1)"><rect fill="#ffffff" stroke="none" x="912" y="472" width="186.38525390625" height="72"/></g><g transform="translate(-366,-14) scale(1,1)"><path fill="none" stroke="#000000" d="M 912 472 L 1098.38525390625 472 L 1098.38525390625 544 L 912 544 L 912 472 Z Z" stroke-miterlimit="10"/></g><g transform="translate(-366,-14) scale(1,1)"><path fill="none" stroke="#000000" d="M 912 497 L 1098.38525390625 497" stroke-miterlimit="10"/></g><g transform="translate(-366,-14) scale(1,1)"><path fill="none" stroke="#000000" d="M 912 507 L 1098.38525390625 507" stroke-miterlimit="10"/></g><g transform="translate(-366,-14) scale(1,1)"><g><path fill="none" stroke="none"/><text fill="#000000" stroke="none" font-family="Arial" font-size="13px" font-style="normal" font-weight="bold" text-decoration="none" x="966.167236328125" y="491.5">AccountRepo</text></g></g><g transform="translate(-366,-14) scale(1,1)"><g><path fill="none" stroke="none"/><text fill="#000000" stroke="none" font-family="Arial" font-size="13px" font-style="normal" font-weight="normal" text-decoration="none" x="917" y="524.5">+findByID(id: String): Account</text></g></g><g transform="translate(-366,-14) scale(1,1)"><g><path fill="none" stroke="none"/><text fill="#000000" stroke="none" font-family="Arial" font-size="13px" font-style="normal" font-weight="normal" text-decoration="none" x="917" y="539.5">+existByID(id: String): Boolean</text></g></g><g transform="translate(-366,-14) scale(1,1)"><rect fill="#C0C0C0" stroke="none" x="927" y="31" width="178.0888671875" height="117" opacity="0.2"/></g><g transform="translate(-366,-14) scale(1,1)"><rect fill="#ffffff" stroke="none" x="920" y="24" width="178.0888671875" height="117"/></g><g transform="translate(-366,-14) scale(1,1)"><path fill="none" stroke="#000000" d="M 920 24 L 1098.0888671875 24 L 1098.0888671875 141 L 920 141 L 920 24 Z Z" stroke-miterlimit="10"/></g><g transform="translate(-366,-14) scale(1,1)"><path fill="none" stroke="#000000" d="M 920 49 L 1098.0888671875 49" stroke-miterlimit="10"/></g><g transform="translate(-366,-14) scale(1,1)"><path fill="none" stroke="#000000" d="M 920 87 L 1098.0888671875 87" stroke-miterlimit="10"/></g><g transform="translate(-366,-14) scale(1,1)"><g><path fill="none" stroke="none"/><text fill="#000000" stroke="none" font-family="Arial" font-size="13px" font-style="normal" font-weight="bold" text-decoration="none" x="957.739501953125" y="43.5">AccountResource</text></g></g><g transform="translate(-366,-14) scale(1,1)"><g><path fill="none" stroke="none"/><text fill="#000000" stroke="none" font-family="Arial" font-size="13px" font-style="normal" font-weight="normal" text-decoration="none" x="925" y="66.5">-phoneNumber: json-attribute</text></g></g><g transform="translate(-366,-14) scale(1,1)"><g><path fill="none" stroke="none"/><text fill="#000000" stroke="none" font-family="Arial" font-size="13px" font-style="normal" font-weight="normal" text-decoration="none" x="925" y="81.5">-name: json-attribute</text></g></g><g transform="translate(-366,-14) scale(1,1)"><rect fill="#C0C0C0" stroke="none" x="407" y="223" width="377.18310546875" height="102" opacity="0.2"/></g><g transform="translate(-366,-14) scale(1,1)"><rect fill="#ffffff" stroke="none" x="400" y="216" width="377.18310546875" height="102"/></g><g transform="translate(-366,-14) scale(1,1)"><path fill="none" stroke="#000000" d="M 400 216 L 777.18310546875 216 L 777.18310546875 318 L 400 318 L 400 216 Z Z" stroke-miterlimit="10"/></g><g transform="translate(-366,-14) scale(1,1)"><path fill="none" stroke="#000000" d="M 400 241 L 777.18310546875 241" stroke-miterlimit="10"/></g><g transform="translate(-366,-14) scale(1,1)"><path fill="none" stroke="#000000" d="M 400 251 L 777.18310546875 251" stroke-miterlimit="10"/></g><g transform="translate(-366,-14) scale(1,1)"><g><path fill="none" stroke="none"/><text fill="#000000" stroke="none" font-family="Arial" font-size="13px" font-style="normal" font-weight="bold" text-decoration="none" x="543.43115234375" y="235.5">AccountService</text></g></g><g transform="translate(-366,-14) scale(1,1)"><g><path fill="none" stroke="none"/><text fill="#000000" stroke="none" font-family="Arial" font-size="13px" font-style="normal" font-weight="normal" text-decoration="none" x="405" y="268.5">+createAccount(accountResource: AccountResource): Account</text></g></g><g transform="translate(-366,-14) scale(1,1)"><g><path fill="none" stroke="none"/><text fill="#000000" stroke="none" font-family="Arial" font-size="13px" font-style="normal" font-weight="normal" text-decoration="none" x="405" y="283.5">+deleteAccount(id: String)</text></g></g><g transform="translate(-366,-14) scale(1,1)"><g><path fill="none" stroke="none"/><text fill="#000000" stroke="none" font-family="Arial" font-size="13px" font-style="normal" font-weight="normal" text-decoration="none" x="405" y="298.5">+getAccount(id: String): Account</text></g></g><g transform="translate(-366,-14) scale(1,1)"><g><path fill="none" stroke="none"/><text fill="#000000" stroke="none" font-family="Arial" font-size="13px" font-style="normal" font-weight="normal" text-decoration="none" x="405" y="313.5">+updateAccount(accountResource: AccountResource): Account</text></g></g><g transform="translate(-366,-14) scale(1,1)"><path fill="none" stroke="#000000" d="M 911 510 L 783 512" stroke-miterlimit="10"/></g><g transform="translate(-366,-14) scale(1,1)"><path fill="none" stroke="#000000" d="M 591 375 L 590 319" stroke-miterlimit="10"/></g><g transform="translate(-366,-14) scale(1,1)"><path fill="#FFFFFF" stroke="none" d="M 594.3902941654268 329.08589694281176 L 590 319 L 585.9726006531661 329.23621289838786 L 590.3927945211714 340.9964931855998"/></g><g transform="translate(-366,-14) scale(1,1)"><path fill="none" stroke="#000000" d="M 594.3902941654268 329.08589694281176 L 590 319 L 585.9726006531661 329.23621289838786 L 590.3927945211714 340.9964931855998 L 594.3902941654268 329.08589694281176" stroke-miterlimit="10"/></g><g transform="translate(-366,-14) scale(1,1)"><path fill="none" stroke="#000000" d="M 587 215 L 584 135" stroke-miterlimit="10"/></g><g transform="translate(-366,-14) scale(1,1)"><path fill="#FFFFFF" stroke="none" d="M 588.5873936851642 144.99779071481873 L 584 135 L 580.1742715714197 145.31328279408416 L 584.8244205329601 156.98454754560197"/></g><g transform="translate(-366,-14) scale(1,1)"><path fill="none" stroke="#000000" d="M 588.5873936851642 144.99779071481873 L 584 135 L 580.1742715714197 145.31328279408416 L 584.8244205329601 156.98454754560197 L 588.5873936851642 144.99779071481873" stroke-miterlimit="10"/></g><g transform="translate(-366,-14) scale(1,1)"><path fill="none" stroke="#000000" d="M 791 83 L 919 82" stroke-miterlimit="10" stroke-dasharray="3"/></g><g transform="translate(-366,-14) scale(1,1)"><path fill="none" stroke="#000000" d="M 908.8705211222909 86.28878277207492 L 919 82 L 908.8047494145159 77.87000417685627" stroke-miterlimit="10"/></g></g></svg>