<svg version="1.1" xmlns="http://www.w3.org/2000/svg" xmlns:xlink="http://www.w3.org/1999/xlink" width="830.1162109375" height="600"><defs/><g><text fill="#eeeeee" stroke="none" font-family="Arial" font-size="24px" font-style="normal" font-weight="normal" text-decoration="none" x="0" y="0">UNREGISTERED</text><text fill="#eeeeee" stroke="none" font-family="Arial" font-size="24px" font-style="normal" font-weight="normal" text-decoration="none" x="0" y="30">UNREGISTERED</text><text fill="#eeeeee" stroke="none" font-family="Arial" font-size="24px" font-style="normal" font-weight="normal" text-decoration="none" x="0" y="60">UNREGISTERED</text><text fill="#eeeeee" stroke="none" font-family="Arial" font-size="24px" font-style="normal" font-weight="normal" text-decoration="none" x="0" y="90">UNREGISTERED</text><text fill="#eeeeee" stroke="none" font-family="Arial" font-size="24px" font-style="normal" font-weight="normal" text-decoration="none" x="0" y="120">UNREGISTERED</text><text fill="#eeeeee" stroke="none" font-family="Arial" font-size="24px" font-style="normal" font-weight="normal" text-decoration="none" x="0" y="150">UNREGISTERED</text><text fill="#eeeeee" stroke="none" font-family="Arial" font-size="24px" font-style="normal" font-weight="normal" text-decoration="none" x="0" y="180">UNREGISTERED</text><text fill="#eeeeee" stroke="none" font-family="Arial" font-size="24px" font-style="normal" font-weight="normal" text-decoration="none" x="0" y="210">UNREGISTERED</text><text fill="#eeeeee" stroke="none" font-family="Arial" font-size="24px" font-style="normal" font-weight="normal" text-decoration="none" x="0" y="240">UNREGISTERED</text><text fill="#eeeeee" stroke="none" font-family="Arial" font-size="24px" font-style="normal" font-weight="normal" text-decoration="none" x="0" y="270">UNREGISTERED</text><text fill="#eeeeee" stroke="none" font-family="Arial" font-size="24px" font-style="normal" font-weight="normal" text-decoration="none" x="0" y="300">UNREGISTERED</text><text fill="#eeeeee" stroke="none" font-family="Arial" font-size="24px" font-style="normal" font-weight="normal" text-decoration="none" x="0" y="330">UNREGISTERED</text><text fill="#eeeeee" stroke="none" font-family="Arial" font-size="24px" font-style="normal" font-weight="normal" text-decoration="none" x="0" y="360">UNREGISTERED</text><text fill="#eeeeee" stroke="none" font-family="Arial" font-size="24px" font-style="normal" font-weight="normal" text-decoration="none" x="0" y="390">UNREGISTERED</text><text fill="#eeeeee" stroke="none" font-family="Arial" font-size="24px" font-style="normal" font-weight="normal" text-decoration="none" x="0" y="420">UNREGISTERED</text><text fill="#eeeeee" stroke="none" font-family="Arial" font-size="24px" font-style="normal" font-weight="normal" text-decoration="none" x="0" y="450">UNREGISTERED</text><text fill="#eeeeee" stroke="none" font-family="Arial" font-size="24px" font-style="normal" font-weight="normal" text-decoration="none" x="0" y="480">UNREGISTERED</text><text fill="#eeeeee" stroke="none" font-family="Arial" font-size="24px" font-style="normal" font-weight="normal" text-decoration="none" x="0" y="510">UNREGISTERED</text><text fill="#eeeeee" stroke="none" font-family="Arial" font-size="24px" font-style="normal" font-weight="normal" text-decoration="none" x="0" y="540">UNREGISTERED</text><text fill="#eeeeee" stroke="none" font-family="Arial" font-size="24px" font-style="normal" font-weight="normal" text-decoration="none" x="0" y="570">UNREGISTERED</text><text fill="#eeeeee" stroke="none" font-family="Arial" font-size="24px" font-style="normal" font-weight="normal" text-decoration="none" x="200" y="0">UNREGISTERED</text><text fill="#eeeeee" stroke="none" font-family="Arial" font-size="24px" font-style="normal" font-weight="normal" text-decoration="none" x="200" y="30">UNREGISTERED</text><text fill="#eeeeee" stroke="none" font-family="Arial" font-size="24px" font-style="normal" font-weight="normal" text-decoration="none" x="200" y="60">UNREGISTERED</text><text fill="#eeeeee" stroke="none" font-family="Arial" font-size="24px" font-style="normal" font-weight="normal" text-decoration="none" x="200" y="90">UNREGISTERED</text><text fill="#eeeeee" stroke="none" font-family="Arial" font-size="24px" font-style="normal" font-weight="normal" text-decoration="none" x="200" y="120">UNREGISTERED</text><text fill="#eeeeee" stroke="none" font-family="Arial" font-size="24px" font-style="normal" font-weight="normal" text-decoration="none" x="200" y="150">UNREGISTERED</text><text fill="#eeeeee" stroke="none" font-family="Arial" font-size="24px" font-style="normal" font-weight="normal" text-decoration="none" x="200" y="180">UNREGISTERED</text><text fill="#eeeeee" stroke="none" font-family="Arial" font-size="24px" font-style="normal" font-weight="normal" text-decoration="none" x="200" y="210">UNREGISTERED</text><text fill="#eeeeee" stroke="none" font-family="Arial" font-size="24px" font-style="normal" font-weight="normal" text-decoration="none" x="200" y="240">UNREGISTERED</text><text fill="#eeeeee" stroke="none" font-family="Arial" font-size="24px" font-style="normal" font-weight="normal" text-decoration="none" x="200" y="270">UNREGISTERED</text><text fill="#eeeeee" stroke="none" font-family="Arial" font-size="24px" font-style="normal" font-weight="normal" text-decoration="none" x="200" y="300">UNREGISTERED</text><text fill="#eeeeee" stroke="none" font-family="Arial" font-size="24px" font-style="normal" font-weight="normal" text-decoration="none" x="200" y="330">UNREGISTERED</text><text fill="#eeeeee" stroke="none" font-family="Arial" font-size="24px" font-style="normal" font-weight="normal" text-decoration="none" x="200" y="360">UNREGISTERED</text><text fill="#eeeeee" stroke="none" font-family="Arial" font-size="24px" font-style="normal" font-weight="normal" text-decoration="none" x="200" y="390">UNREGISTERED</text><text fill="#eeeeee" stroke="none" font-family="Arial" font-size="24px" font-style="normal" font-weight="normal" text-decoration="none" x="200" y="420">UNREGISTERED</text><text fill="#eeeeee" stroke="none" font-family="Arial" font-size="24px" font-style="normal" font-weight="normal" text-decoration="none" x="200" y="450">UNREGISTERED</text><text fill="#eeeeee" stroke="none" font-family="Arial" font-size="24px" font-style="normal" font-weight="normal" text-decoration="none" x="200" y="480">UNREGISTERED</text><text fill="#eeeeee" stroke="none" font-family="Arial" font-size="24px" font-style="normal" font-weight="normal" text-decoration="none" x="200" y="510">UNREGISTERED</text><text fill="#eeeeee" stroke="none" font-family="Arial" font-size="24px" font-style="normal" font-weight="normal" text-decoration="none" x="200" y="540">UNREGISTERED</text><text fill="#eeeeee" stroke="none" font-family="Arial" font-size="24px" font-style="normal" font-weight="normal" text-decoration="none" x="200" y="570">UNREGISTERED</text><text fill="#eeeeee" stroke="none" font-family="Arial" font-size="24px" font-style="normal" font-weight="normal" text-decoration="none" x="400" y="0">UNREGISTERED</text><text fill="#eeeeee" stroke="none" font-family="Arial" font-size="24px" font-style="normal" font-weight="normal" text-decoration="none" x="400" y="30">UNREGISTERED</text><text fill="#eeeeee" stroke="none" font-family="Arial" font-size="24px" font-style="normal" font-weight="normal" text-decoration="none" x="400" y="60">UNREGISTERED</text><text fill="#eeeeee" stroke="none" font-family="Arial" font-size="24px" font-style="normal" font-weight="normal" text-decoration="none" x="400" y="90">UNREGISTERED</text><text fill="#eeeeee" stroke="none" font-family="Arial" font-size="24px" font-style="normal" font-weight="normal" text-decoration="none" x="400" y="120">UNREGISTERED</text><text fill="#eeeeee" stroke="none" font-family="Arial" font-size="24px" font-style="normal" font-weight="normal" text-decoration="none" x="400" y="150">UNREGISTERED</text><text fill="#eeeeee" stroke="none" font-family="Arial" font-size="24px" font-style="normal" font-weight="normal" text-decoration="none" x="400" y="180">UNREGISTERED</text><text fill="#eeeeee" stroke="none" font-family="Arial" font-size="24px" font-style="normal" font-weight="normal" text-decoration="none" x="400" y="210">UNREGISTERED</text><text fill="#eeeeee" stroke="none" font-family="Arial" font-size="24px" font-style="normal" font-weight="normal" text-decoration="none" x="400" y="240">UNREGISTERED</text><text fill="#eeeeee" stroke="none" font-family="Arial" font-size="24px" font-style="normal" font-weight="normal" text-decoration="none" x="400" y="270">UNREGISTERED</text><text fill="#eeeeee" stroke="none" font-family="Arial" font-size="24px" font-style="normal" font-weight="normal" text-decoration="none" x="400" y="300">UNREGISTERED</text><text fill="#eeeeee" stroke="none" font-family="Arial" font-size="24px" font-style="normal" font-weight="normal" text-decoration="none" x="400" y="330">UNREGISTERED</text><text fill="#eeeeee" stroke="none" font-family="Arial" font-size="24px" font-style="normal" font-weight="normal" text-decoration="none" x="400" y="360">UNREGISTERED</text><text fill="#eeeeee" stroke="none" font-family="Arial" font-size="24px" font-style="normal" font-weight="normal" text-decoration="none" x="400" y="390">UNREGISTERED</text><text fill="#eeeeee" stroke="none" font-family="Arial" font-size="24px" font-style="normal" font-weight="normal" text-decoration="none" x="400" y="420">UNREGISTERED</text><text fill="#eeeeee" stroke="none" font-family="Arial" font-size="24px" font-style="normal" font-weight="normal" text-decoration="none" x="400" y="450">UNREGISTERED</text><text fill="#eeeeee" stroke="none" font-family="Arial" font-size="24px" font-style="normal" font-weight="normal" text-decoration="none" x="400" y="480">UNREGISTERED</text><text fill="#eeeeee" stroke="none" font-family="Arial" font-size="24px" font-style="normal" font-weight="normal" text-decoration="none" x="400" y="510">UNREGISTERED</text><text fill="#eeeeee" stroke="none" font-family="Arial" font-size="24px" font-style="normal" font-weight="normal" text-decoration="none" x="400" y="540">UNREGISTERED</text><text fill="#eeeeee" stroke="none" font-family="Arial" font-size="24px" font-style="normal" font-weight="normal" text-decoration="none" x="400" y="570">UNREGISTERED</text><text fill="#eeeeee" stroke="none" font-family="Arial" font-size="24px" font-style="normal" font-weight="normal" text-decoration="none" x="600" y="0">UNREGISTERED</text><text fill="#eeeeee" stroke="none" font-family="Arial" font-size="24px" font-style="normal" font-weight="normal" text-decoration="none" x="600" y="30">UNREGISTERED</text><text fill="#eeeeee" stroke="none" font-family="Arial" font-size="24px" font-style="normal" font-weight="normal" text-decoration="none" x="600" y="60">UNREGISTERED</text><text fill="#eeeeee" stroke="none" font-family="Arial" font-size="24px" font-style="normal" font-weight="normal" text-decoration="none" x="600" y="90">UNREGISTERED</text><text fill="#eeeeee" stroke="none" font-family="Arial" font-size="24px" font-style="normal" font-weight="normal" text-decoration="none" x="600" y="120">UNREGISTERED</text><text fill="#eeeeee" stroke="none" font-family="Arial" font-size="24px" font-style="normal" font-weight="normal" text-decoration="none" x="600" y="150">UNREGISTERED</text><text fill="#eeeeee" stroke="none" font-family="Arial" font-size="24px" font-style="normal" font-weight="normal" text-decoration="none" x="600" y="180">UNREGISTERED</text><text fill="#eeeeee" stroke="none" font-family="Arial" font-size="24px" font-style="normal" font-weight="normal" text-decoration="none" x="600" y="210">UNREGISTERED</text><text fill="#eeeeee" stroke="none" font-family="Arial" font-size="24px" font-style="normal" font-weight="normal" text-decoration="none" x="600" y="240">UNREGISTERED</text><text fill="#eeeeee" stroke="none" font-family="Arial" font-size="24px" font-style="normal" font-weight="normal" text-decoration="none" x="600" y="270">UNREGISTERED</text><text fill="#eeeeee" stroke="none" font-family="Arial" font-size="24px" font-style="normal" font-weight="normal" text-decoration="none" x="600" y="300">UNREGISTERED</text><text fill="#eeeeee" stroke="none" font-family="Arial" font-size="24px" font-style="normal" font-weight="normal" text-decoration="none" x="600" y="330">UNREGISTERED</text><text fill="#eeeeee" stroke="none" font-family="Arial" font-size="24px" font-style="normal" font-weight="normal" text-decoration="none" x="600" y="360">UNREGISTERED</text><text fill="#eeeeee" stroke="none" font-family="Arial" font-size="24px" font-style="normal" font-weight="normal" text-decoration="none" x="600" y="390">UNREGISTERED</text><text fill="#eeeeee" stroke="none" font-family="Arial" font-size="24px" font-style="normal" font-weight="normal" text-decoration="none" x="600" y="420">UNREGISTERED</text><text fill="#eeeeee" stroke="none" font-family="Arial" font-size="24px" font-style="normal" font-weight="normal" text-decoration="none" x="600" y="450">UNREGISTERED</text><text fill="#eeeeee" stroke="none" font-family="Arial" font-size="24px" font-style="normal" font-weight="normal" text-decoration="none" x="600" y="480">UNREGISTERED</text><text fill="#eeeeee" stroke="none" font-family="Arial" font-size="24px" font-style="normal" font-weight="normal" text-decoration="none" x="600" y="510">UNREGISTERED</text><text fill="#eeeeee" stroke="none" font-family="Arial" font-size="24px" font-style="normal" font-weight="normal" text-decoration="none" x="600" y="540">UNREGISTERED</text><text fill="#eeeeee" stroke="none" font-family="Arial" font-size="24px" font-style="normal" font-weight="normal" text-decoration="none" x="600" y="570">UNREGISTERED</text><text fill="#eeeeee" stroke="none" font-family="Arial" font-size="24px" font-style="normal" font-weight="normal" text-decoration="none" x="800" y="0">UNREGISTERED</text><text fill="#eeeeee" stroke="none" font-family="Arial" font-size="24px" font-style="normal" font-weight="normal" text-decoration="none" x="800" y="30">UNREGISTERED</text><text fill="#eeeeee" stroke="none" font-family="Arial" font-size="24px" font-style="normal" font-weight="normal" text-decoration="none" x="800" y="60">UNREGISTERED</text><text fill="#eeeeee" stroke="none" font-family="Arial" font-size="24px" font-style="normal" font-weight="normal" text-decoration="none" x="800" y="90">UNREGISTERED</text><text fill="#eeeeee" stroke="none" font-family="Arial" font-size="24px" font-style="normal" font-weight="normal" text-decoration="none" x="800" y="120">UNREGISTERED</text><text fill="#eeeeee" stroke="none" font-family="Arial" font-size="24px" font-style="normal" font-weight="normal" text-decoration="none" x="800" y="150">UNREGISTERED</text><text fill="#eeeeee" stroke="none" font-family="Arial" font-size="24px" font-style="normal" font-weight="normal" text-decoration="none" x="800" y="180">UNREGISTERED</text><text fill="#eeeeee" stroke="none" font-family="Arial" font-size="24px" font-style="normal" font-weight="normal" text-decoration="none" x="800" y="210">UNREGISTERED</text><text fill="#eeeeee" stroke="none" font-family="Arial" font-size="24px" font-style="normal" font-weight="normal" text-decoration="none" x="800" y="240">UNREGISTERED</text><text fill="#eeeeee" stroke="none" font-family="Arial" font-size="24px" font-style="normal" font-weight="normal" text-decoration="none" x="800" y="270">UNREGISTERED</text><text fill="#eeeeee" stroke="none" font-family="Arial" font-size="24px" font-style="normal" font-weight="normal" text-decoration="none" x="800" y="300">UNREGISTERED</text><text fill="#eeeeee" stroke="none" font-family="Arial" font-size="24px" font-style="normal" font-weight="normal" text-decoration="none" x="800" y="330">UNREGISTERED</text><text fill="#eeeeee" stroke="none" font-family="Arial" font-size="24px" font-style="normal" font-weight="normal" text-decoration="none" x="800" y="360">UNREGISTERED</text><text fill="#eeeeee" stroke="none" font-family="Arial" font-size="24px" font-style="normal" font-weight="normal" text-decoration="none" x="800" y="390">UNREGISTERED</text><text fill="#eeeeee" stroke="none" font-family="Arial" font-size="24px" font-style="normal" font-weight="normal" text-decoration="none" x="800" y="420">UNREGISTERED</text><text fill="#eeeeee" stroke="none" font-family="Arial" font-size="24px" font-style="normal" font-weight="normal" text-decoration="none" x="800" y="450">UNREGISTERED</text><text fill="#eeeeee" stroke="none" font-family="Arial" font-size="24px" font-style="normal" font-weight="normal" text-decoration="none" x="800" y="480">UNREGISTERED</text><text fill="#eeeeee" stroke="none" font-family="Arial" font-size="24px" font-style="normal" font-weight="normal" text-decoration="none" x="800" y="510">UNREGISTERED</text><text fill="#eeeeee" stroke="none" font-family="Arial" font-size="24px" font-style="normal" font-weight="normal" text-decoration="none" x="800" y="540">UNREGISTERED</text><text fill="#eeeeee" stroke="none" font-family="Arial" font-size="24px" font-style="normal" font-weight="normal" text-decoration="none" x="800" y="570">UNREGISTERED</text><g transform="translate(-574,-94) scale(1,1)"><rect fill="#C0C0C0" stroke="none" x="779" y="561" width="181.3515625" height="130" opacity="0.2"/></g><g transform="translate(-574,-94) scale(1,1)"><rect fill="#ffffff" stroke="none" x="772" y="554" width="181.3515625" height="130"/></g><g transform="translate(-574,-94) scale(1,1)"><path fill="none" stroke="#000000" d="M 772 554 L 953.3515625 554 L 953.3515625 684 L 772 684 L 772 554 Z Z" stroke-miterlimit="10"/></g><g transform="translate(-574,-94) scale(1,1)"><path fill="none" stroke="#000000" d="M 772 579 L 953.3515625 579" stroke-miterlimit="10"/></g><g transform="translate(-574,-94) scale(1,1)"><path fill="none" stroke="#000000" d="M 772 662 L 953.3515625 662" stroke-miterlimit="10"/></g><g transform="translate(-574,-94) scale(1,1)"><g><path fill="none" stroke="none"/><text fill="#000000" stroke="none" font-family="Arial" font-size="13px" font-style="normal" font-weight="bold" text-decoration="none" x="804.51220703125" y="573.5">UserImplementation</text></g></g><g transform="translate(-574,-94) scale(1,1)"><g><path fill="none" stroke="none"/><text fill="#000000" stroke="none" font-family="Arial" font-size="13px" font-style="normal" font-weight="normal" text-decoration="none" x="777" y="596.5">-documents: Document</text></g></g><g transform="translate(-574,-94) scale(1,1)"><g><path fill="none" stroke="none"/><text fill="#000000" stroke="none" font-family="Arial" font-size="13px" font-style="normal" font-weight="normal" text-decoration="none" x="777" y="611.5">-name: String</text></g></g><g transform="translate(-574,-94) scale(1,1)"><g><path fill="none" stroke="none"/><text fill="#000000" stroke="none" font-family="Arial" font-size="13px" font-style="normal" font-weight="normal" text-decoration="none" x="777" y="626.5">-email: String</text></g></g><g transform="translate(-574,-94) scale(1,1)"><g><path fill="none" stroke="none"/><text fill="#000000" stroke="none" font-family="Arial" font-size="13px" font-style="normal" font-weight="normal" text-decoration="none" x="777" y="641.5">-account: Account</text></g></g><g transform="translate(-574,-94) scale(1,1)"><g><path fill="none" stroke="none"/><text fill="#000000" stroke="none" font-family="Arial" font-size="13px" font-style="normal" font-weight="normal" text-decoration="none" x="777" y="656.5">-title: String</text></g></g><g transform="translate(-574,-94) scale(1,1)"><rect fill="#C0C0C0" stroke="none" x="1231" y="119" width="170.1162109375" height="117" opacity="0.2"/></g><g transform="translate(-574,-94) scale(1,1)"><rect fill="#ffffff" stroke="none" x="1224" y="112" width="170.1162109375" height="117"/></g><g transform="translate(-574,-94) scale(1,1)"><path fill="none" stroke="#000000" d="M 1224 112 L 1394.1162109375 112 L 1394.1162109375 229 L 1224 229 L 1224 112 Z Z" stroke-miterlimit="10"/></g><g transform="translate(-574,-94) scale(1,1)"><path fill="none" stroke="#000000" d="M 1224 137 L 1394.1162109375 137" stroke-miterlimit="10"/></g><g transform="translate(-574,-94) scale(1,1)"><path fill="none" stroke="#000000" d="M 1224 220 L 1394.1162109375 220" stroke-miterlimit="10"/></g><g transform="translate(-574,-94) scale(1,1)"><g><path fill="none" stroke="none"/><text fill="#000000" stroke="none" font-family="Arial" font-size="13px" font-style="normal" font-weight="bold" text-decoration="none" x="1267.515869140625" y="131.5">UserResource</text></g></g><g transform="translate(-574,-94) scale(1,1)"><g><path fill="none" stroke="none"/><text fill="#000000" stroke="none" font-family="Arial" font-size="13px" font-style="normal" font-weight="normal" text-decoration="none" x="1229" y="154.5">-documents: json-attribute</text></g></g><g transform="translate(-574,-94) scale(1,1)"><g><path fill="none" stroke="none"/><text fill="#000000" stroke="none" font-family="Arial" font-size="13px" font-style="normal" font-weight="normal" text-decoration="none" x="1229" y="169.5">-name: json-attribute</text></g></g><g transform="translate(-574,-94) scale(1,1)"><g><path fill="none" stroke="none"/><text fill="#000000" stroke="none" font-family="Arial" font-size="13px" font-style="normal" font-weight="normal" text-decoration="none" x="1229" y="184.5">-email: json-attribute</text></g></g><g transform="translate(-574,-94) scale(1,1)"><g><path fill="none" stroke="none"/><text fill="#000000" stroke="none" font-family="Arial" font-size="13px" font-style="normal" font-weight="normal" text-decoration="none" x="1229" y="199.5">-account: json-attribute</text></g></g><g transform="translate(-574,-94) scale(1,1)"><g><path fill="none" stroke="none"/><text fill="#000000" stroke="none" font-family="Arial" font-size="13px" font-style="normal" font-weight="normal" text-decoration="none" x="1229" y="214.5">-title: json-attribute</text></g></g><g transform="translate(-574,-94) scale(1,1)"><rect fill="#C0C0C0" stroke="none" x="1007" y="583" width="242.0224609375" height="72" opacity="0.2"/></g><g transform="translate(-574,-94) scale(1,1)"><rect fill="#ffffff" stroke="none" x="1000" y="576" width="242.0224609375" height="72"/></g><g transform="translate(-574,-94) scale(1,1)"><path fill="none" stroke="#000000" d="M 1000 576 L 1242.0224609375 576 L 1242.0224609375 648 L 1000 648 L 1000 576 Z Z" stroke-miterlimit="10"/></g><g transform="translate(-574,-94) scale(1,1)"><path fill="none" stroke="#000000" d="M 1000 601 L 1242.0224609375 601" stroke-miterlimit="10"/></g><g transform="translate(-574,-94) scale(1,1)"><path fill="none" stroke="#000000" d="M 1000 611 L 1242.0224609375 611" stroke-miterlimit="10"/></g><g transform="translate(-574,-94) scale(1,1)"><g><path fill="none" stroke="none"/><text fill="#000000" stroke="none" font-family="Arial" font-size="13px" font-style="normal" font-weight="bold" text-decoration="none" x="1091.74853515625" y="595.5">UserRepo</text></g></g><g transform="translate(-574,-94) scale(1,1)"><g><path fill="none" stroke="none"/><text fill="#000000" stroke="none" font-family="Arial" font-size="13px" font-style="normal" font-weight="normal" text-decoration="none" x="1005" y="628.5">+findByID(id: String): User</text></g></g><g transform="translate(-574,-94) scale(1,1)"><g><path fill="none" stroke="none"/><text fill="#000000" stroke="none" font-family="Arial" font-size="13px" font-style="normal" font-weight="normal" text-decoration="none" x="1005" y="643.5">+existByID(id: String): Boolean</text></g></g><g transform="translate(-574,-94) scale(1,1)"><path fill="#C0C0C0" stroke="none" d="M 852 494 C 852 485.715728 858.715728 479 867 479 C 875.284272 479 882 485.715728 882 494 C 882 502.284272 875.284272 509 867 509 C 858.715728 509 852 502.284272 852 494 Z" opacity="0.2"/></g><g transform="translate(-574,-94) scale(1,1)"><path fill="#ffffff" stroke="none" d="M 845 487 C 845 478.715728 851.715728 472 860 472 C 868.284272 472 875 478.715728 875 487 C 875 495.284272 868.284272 502 860 502 C 851.715728 502 845 495.284272 845 487 Z"/></g><g transform="translate(-574,-94) scale(1,1)"><path fill="none" stroke="#000000" d="M 845 487 C 845 478.715728 851.715728 472 860 472 C 868.284272 472 875 478.715728 875 487 C 875 495.284272 868.284272 502 860 502 C 851.715728 502 845 495.284272 845 487 Z" stroke-miterlimit="10"/></g><g transform="translate(-574,-94) scale(1,1)"><g><path fill="none" stroke="none"/><text fill="#000000" stroke="none" font-family="Arial" font-size="13px" font-style="normal" font-weight="bold" text-decoration="none" x="846.2763671875" y="521.5">User</text></g></g><g transform="translate(-574,-94) scale(1,1)"><path fill="none" stroke="#000000" d="M 861 553 L 860 502" stroke-miterlimit="10"/></g><g transform="translate(-574,-94) scale(1,1)"><path fill="none" stroke="#000000" d="M 999 615 L 954 617" stroke-miterlimit="10"/></g><g transform="translate(-574,-94) scale(1,1)"><rect fill="#C0C0C0" stroke="none" x="591" y="583" width="95.72802734375" height="90" opacity="0.2"/></g><g transform="translate(-574,-94) scale(1,1)"><rect fill="#ffffff" stroke="none" x="584" y="576" width="95.72802734375" height="90"/></g><g transform="translate(-574,-94) scale(1,1)"><path fill="none" stroke="#000000" d="M 584 576 L 679.72802734375 576 L 679.72802734375 666 L 584 666 L 584 576 Z Z" stroke-miterlimit="10"/></g><g transform="translate(-574,-94) scale(1,1)"><path fill="none" stroke="#000000" d="M 584 614 L 679.72802734375 614" stroke-miterlimit="10"/></g><g transform="translate(-574,-94) scale(1,1)"><g><path fill="none" stroke="none"/><text fill="#000000" stroke="none" font-family="Arial" font-size="13px" font-style="normal" font-weight="normal" text-decoration="none" x="588.5" y="593.5">«enumeration»</text></g></g><g transform="translate(-574,-94) scale(1,1)"><g><path fill="none" stroke="none"/><text fill="#000000" stroke="none" font-family="Arial" font-size="13px" font-style="normal" font-weight="bold" text-decoration="none" x="593.213134765625" y="608.5">USER_TYPE</text></g></g><g transform="translate(-574,-94) scale(1,1)"><g><path fill="none" stroke="none"/><text fill="#000000" stroke="none" font-family="Arial" font-size="13px" font-style="normal" font-weight="normal" text-decoration="none" x="589" y="631.5">Admin</text></g></g><g transform="translate(-574,-94) scale(1,1)"><g><path fill="none" stroke="none"/><text fill="#000000" stroke="none" font-family="Arial" font-size="13px" font-style="normal" font-weight="normal" text-decoration="none" x="589" y="646.5">CFR</text></g></g><g transform="translate(-574,-94) scale(1,1)"><g><path fill="none" stroke="none"/><text fill="#000000" stroke="none" font-family="Arial" font-size="13px" font-style="normal" font-weight="normal" text-decoration="none" x="589" y="661.5">Lawyer</text></g></g><g transform="translate(-574,-94) scale(1,1)"><path fill="none" stroke="#000000" d="M 681 621 L 771 620" stroke-miterlimit="10"/></g><g transform="translate(-574,-94) scale(1,1)"><path fill="#000000" stroke="none" d="M 760.8847219424969 624.3221695731883 L 771 620 L 760.7911828773124 615.9036537065916 L 749.0013578989613 620.2444293566782"/></g><g transform="translate(-574,-94) scale(1,1)"><path fill="none" stroke="#000000" d="M 760.8847219424969 624.3221695731883 L 771 620 L 760.7911828773124 615.9036537065916 L 749.0013578989613 620.2444293566782 L 760.8847219424969 624.3221695731883" stroke-miterlimit="10"/></g><g transform="translate(-574,-94) scale(1,1)"><rect fill="#C0C0C0" stroke="none" x="623" y="287" width="481.8876953125" height="147" opacity="0.2"/></g><g transform="translate(-574,-94) scale(1,1)"><rect fill="#ffffff" stroke="none" x="616" y="280" width="481.8876953125" height="147"/></g><g transform="translate(-574,-94) scale(1,1)"><path fill="none" stroke="#000000" d="M 616 280 L 1097.8876953125 280 L 1097.8876953125 427 L 616 427 L 616 280 Z Z" stroke-miterlimit="10"/></g><g transform="translate(-574,-94) scale(1,1)"><path fill="none" stroke="#000000" d="M 616 305 L 1097.8876953125 305" stroke-miterlimit="10"/></g><g transform="translate(-574,-94) scale(1,1)"><path fill="none" stroke="#000000" d="M 616 315 L 1097.8876953125 315" stroke-miterlimit="10"/></g><g transform="translate(-574,-94) scale(1,1)"><g><path fill="none" stroke="none"/><text fill="#000000" stroke="none" font-family="Arial" font-size="13px" font-style="normal" font-weight="bold" text-decoration="none" x="821.546142578125" y="299.5">UserService</text></g></g><g transform="translate(-574,-94) scale(1,1)"><g><path fill="none" stroke="none"/><text fill="#000000" stroke="none" font-family="Arial" font-size="13px" font-style="normal" font-weight="normal" text-decoration="none" x="621" y="332.5">+createUser(userResource: UserResource): User</text></g></g><g transform="translate(-574,-94) scale(1,1)"><g><path fill="none" stroke="none"/><text fill="#000000" stroke="none" font-family="Arial" font-size="13px" font-style="normal" font-weight="normal" text-decoration="none" x="621" y="347.5">+deleteUser(id: String)</text></g></g><g transform="translate(-574,-94) scale(1,1)"><g><path fill="none" stroke="none"/><text fill="#000000" stroke="none" font-family="Arial" font-size="13px" font-style="normal" font-weight="normal" text-decoration="none" x="621" y="362.5">+getUser(id: String): User</text></g></g><g transform="translate(-574,-94) scale(1,1)"><g><path fill="none" stroke="none"/><text fill="#000000" stroke="none" font-family="Arial" font-size="13px" font-style="normal" font-weight="normal" text-decoration="none" x="621" y="377.5">+updateUser(userResource: UserResource): User</text></g></g><g transform="translate(-574,-94) scale(1,1)"><g><path fill="none" stroke="none"/><text fill="#000000" stroke="none" font-family="Arial" font-size="13px" font-style="normal" font-weight="normal" text-decoration="none" x="621" y="392.5">+getUserDocument(id: String, documentId: String)</text></g></g><g transform="translate(-574,-94) scale(1,1)"><g><path fill="none" stroke="none"/><text fill="#000000" stroke="none" font-family="Arial" font-size="13px" font-style="normal" font-weight="normal" text-decoration="none" x="621" y="407.5">+getUserDocuments(id: String): TextArea</text></g></g><g transform="translate(-574,-94) scale(1,1)"><g><path fill="none" stroke="none"/><text fill="#000000" stroke="none" font-family="Arial" font-size="13px" font-style="normal" font-weight="normal" text-decoration="none" x="621" y="422.5">+signDocument(userId: String, documentId: String, Signature: String): Boolean</text></g></g><g transform="translate(-574,-94) scale(1,1)"><path fill="none" stroke="#000000" d="M 859 471 L 858 428" stroke-miterlimit="10"/></g><g transform="translate(-574,-94) scale(1,1)"><path fill="#FFFFFF" stroke="none" d="M 862.4446572858326 438.0620585175945 L 858 428 L 854.0278974963754 438.2577971173493 L 858.5114896104728 449.9940532503306"/></g><g transform="translate(-574,-94) scale(1,1)"><path fill="none" stroke="#000000" d="M 862.4446572858326 438.0620585175945 L 858 428 L 854.0278974963754 438.2577971173493 L 858.5114896104728 449.9940532503306 L 862.4446572858326 438.0620585175945" stroke-miterlimit="10"/></g><g transform="translate(-574,-94) scale(1,1)"><path fill="none" stroke="#000000" d="M 1094 173 L 1223 171" stroke-miterlimit="10" stroke-dasharray="3"/></g><g transform="translate(-574,-94) scale(1,1)"><path fill="none" stroke="#000000" d="M 1212.9038023230223 175.3665538434093 L 1223 171 L 1212.7732903253184 166.94852999150018" stroke-miterlimit="10"/></g><g transform="translate(-574,-94) scale(1,1)"><rect fill="#C0C0C0" stroke="none" x="639" y="111" width="460.9912109375" height="147" opacity="0.2"/></g><g transform="translate(-574,-94) scale(1,1)"><rect fill="#ffffff" stroke="none" x="632" y="104" width="460.9912109375" height="147"/></g><g transform="translate(-574,-94) scale(1,1)"><path fill="none" stroke="#000000" d="M 632 104 L 1092.9912109375 104 L 1092.9912109375 251 L 632 251 L 632 104 Z Z" stroke-miterlimit="10"/></g><g transform="translate(-574,-94) scale(1,1)"><path fill="none" stroke="#000000" d="M 632 129 L 1092.9912109375 129" stroke-miterlimit="10"/></g><g transform="translate(-574,-94) scale(1,1)"><path fill="none" stroke="#000000" d="M 632 139 L 1092.9912109375 139" stroke-miterlimit="10"/></g><g transform="translate(-574,-94) scale(1,1)"><g><path fill="none" stroke="none"/><text fill="#000000" stroke="none" font-family="Arial" font-size="13px" font-style="normal" font-weight="bold" text-decoration="none" x="820.5947265625" y="123.5">UserController</text></g></g><g transform="translate(-574,-94) scale(1,1)"><g><path fill="none" stroke="none"/><text fill="#000000" stroke="none" font-family="Arial" font-size="13px" font-style="normal" font-weight="normal" text-decoration="none" x="637" y="156.5">+createUser(userResource: UserResource): HttpResponce</text></g></g><g transform="translate(-574,-94) scale(1,1)"><g><path fill="none" stroke="none"/><text fill="#000000" stroke="none" font-family="Arial" font-size="13px" font-style="normal" font-weight="normal" text-decoration="none" x="637" y="171.5">+getUser(id: String): HttpResponce</text></g></g><g transform="translate(-574,-94) scale(1,1)"><g><path fill="none" stroke="none"/><text fill="#000000" stroke="none" font-family="Arial" font-size="13px" font-style="normal" font-weight="normal" text-decoration="none" x="637" y="186.5">+updateUser(userResource: UserResource): HttpResponce</text></g></g><g transform="translate(-574,-94) scale(1,1)"><g><path fill="none" stroke="none"/><text fill="#000000" stroke="none" font-family="Arial" font-size="13px" font-style="normal" font-weight="normal" text-decoration="none" x="637" y="201.5">+deleteUser(id: String): HttpResponce</text></g></g><g transform="translate(-574,-94) scale(1,1)"><g><path fill="none" stroke="none"/><text fill="#000000" stroke="none" font-family="Arial" font-size="13px" font-style="normal" font-weight="normal" text-decoration="none" x="637" y="216.5">+getUserDocument(id: String, documentId: String): textArea</text></g></g><g transform="translate(-574,-94) scale(1,1)"><g><path fill="none" stroke="none"/><text fill="#000000" stroke="none" font-family="Arial" font-size="13px" font-style="normal" font-weight="normal" text-decoration="none" x="637" y="231.5">+getUserDocuments(id: String): TextArea</text></g></g><g transform="translate(-574,-94) scale(1,1)"><g><path fill="none" stroke="none"/><text fill="#000000" stroke="none" font-family="Arial" font-size="13px" font-style="normal" font-weight="normal" text-decoration="none" x="637" y="246.5">+signDocument(userId: String, documentId: String, Signature: String): Boolean</text></g></g><g transform="translate(-574,-94) scale(1,1)"><path fill="none" stroke="#000000" d="M 859 279 L 859 252" stroke-miterlimit="10"/></g><g transform="translate(-574,-94) scale(1,1)"><path fill="#FFFFFF" stroke="none" d="M 863.209517756016 262.16267485762415 L 859 252 L 854.790482243984 262.16267485762415 L 859 274"/></g><g transform="translate(-574,-94) scale(1,1)"><path fill="none" stroke="#000000" d="M 863.209517756016 262.16267485762415 L 859 252 L 854.790482243984 262.16267485762415 L 859 274 L 863.209517756016 262.16267485762415" stroke-miterlimit="10"/></g></g></svg>